<svg width="18" height="18" viewBox="0 0 18 18" fill="none" xmlns="http://www.w3.org/2000/svg">
<path d="M8.99978 0C6.55551 0 6.24901 0.0103693 5.28906 0.054151C4.33111 0.0978523 3.67688 0.250016 3.1044 0.472462C2.51257 0.702463 2.01066 1.01022 1.51033 1.51055C1.00998 2.01088 0.702219 2.51284 0.472244 3.10467C0.249745 3.67712 0.0976349 4.33136 0.0538801 5.2893C0.0100984 6.24926 -0.000244141 6.55576 -0.000244141 9.00003C-0.000244141 11.4442 0.0100984 11.7507 0.0538801 12.7107C0.0976349 13.6686 0.249745 14.3229 0.472244 14.8953C0.702245 15.4872 1.01 15.9891 1.51033 16.4895C2.01068 16.9898 2.51257 17.2975 3.1044 17.5275C3.67688 17.75 4.33111 17.9021 5.28906 17.9459C6.24901 17.9896 6.55551 18 8.99978 18C11.444 18 11.7505 17.9896 12.7105 17.9459C13.6684 17.9021 14.3226 17.75 14.8951 17.5275C15.4869 17.2975 15.9888 16.9898 16.4892 16.4895C16.9895 15.9891 17.2973 15.4872 17.5273 14.8953C17.7497 14.3229 17.9019 13.6686 17.9456 12.7107C17.9894 11.7507 17.9998 11.4442 17.9998 9.00003C17.9998 6.55576 17.9894 6.24926 17.9456 5.2893C17.9019 4.33136 17.7497 3.67712 17.5273 3.10467C17.2973 2.51284 16.9895 2.01088 16.4892 1.51055C15.9888 1.01022 15.4869 0.702463 14.8951 0.472462C14.3226 0.250016 13.6684 0.0978523 12.7105 0.054151C11.7505 0.0103693 11.444 0 8.99978 0ZM8.99978 1.62161C11.4028 1.62161 11.6875 1.6308 12.6365 1.6741C13.514 1.7141 13.9906 1.86072 14.3077 1.98397C14.7278 2.14726 15.0276 2.34227 15.3425 2.6572C15.6575 2.97214 15.8525 3.27197 16.0158 3.69205C16.139 4.00918 16.2857 4.48575 16.3257 5.36323C16.369 6.31225 16.3781 6.59691 16.3781 9C16.3781 11.4031 16.369 11.6877 16.3257 12.6368C16.2857 13.5143 16.139 13.9908 16.0158 14.3079C15.8525 14.7281 15.6575 15.0279 15.3425 15.3428C15.0276 15.6577 14.7278 15.8527 14.3077 16.016C13.9906 16.1393 13.514 16.2859 12.6365 16.3259C11.6877 16.3692 11.403 16.3784 8.99976 16.3784C6.59648 16.3784 6.3119 16.3692 5.36298 16.3259C4.48547 16.2859 4.00894 16.1393 3.69183 16.016C3.2717 15.8527 2.9719 15.6577 2.65699 15.3428C2.34205 15.0279 2.14701 14.728 1.98373 14.308C1.86048 13.9908 1.71389 13.5143 1.67386 12.6368C1.63056 11.6877 1.62137 11.4031 1.62137 9C1.62137 6.59691 1.63056 6.31225 1.67386 5.36323C1.71389 4.48572 1.86048 4.00918 1.98373 3.69208C2.14701 3.27194 2.34205 2.97214 2.65696 2.65723C2.9719 2.34227 3.27173 2.14726 3.6918 1.98397C4.00894 1.86072 4.4855 1.7141 5.36298 1.6741C6.31201 1.6308 6.59669 1.62161 8.99978 1.62161Z" fill="white"/>
<path d="M8.99978 12C7.34289 12 5.99975 10.6569 5.99975 9.00002C5.99975 7.34312 7.34289 5.99998 8.99978 5.99998C10.6566 5.99998 11.9998 7.34312 11.9998 9.00002C11.9998 10.6569 10.6566 12 8.99978 12ZM8.99978 4.37837C6.44729 4.37837 4.37814 6.44753 4.37814 9.00002C4.37814 11.5525 6.44729 13.6216 8.99978 13.6216C11.5522 13.6216 13.6214 11.5525 13.6214 9.00002C13.6214 6.44753 11.5522 4.37837 8.99978 4.37837ZM14.884 4.19577C14.884 4.79226 14.4004 5.27576 13.804 5.27576C13.2075 5.27576 12.724 4.79226 12.724 4.19577C12.724 3.5993 13.2075 3.11575 13.804 3.11575C14.4004 3.11575 14.884 3.5993 14.884 4.19577Z" fill="white"/>
</svg>
