<svg width="23" height="18" viewBox="0 0 23 18" fill="none" xmlns="http://www.w3.org/2000/svg">
<path d="M3.51657 1.50747C5.02769 0.793091 6.62296 0.286285 8.26164 0C8.48588 0.413926 8.68877 0.8398 8.86947 1.27584C10.615 1.00424 12.39 1.00424 14.1355 1.27584C14.3163 0.839845 14.5192 0.413976 14.7434 0C16.3831 0.288702 17.9794 0.796712 19.4921 1.51121C22.4951 6.099 23.3091 10.5729 22.9021 14.9832C21.1435 16.3249 19.1751 17.3453 17.0824 18C16.6113 17.3456 16.1943 16.6514 15.836 15.9247C16.5165 15.6622 17.1733 15.3384 17.7988 14.957C17.6342 14.8337 17.4732 14.7067 17.3176 14.5834C15.4976 15.4673 13.5111 15.9255 11.4998 15.9255C9.48852 15.9255 7.50202 15.4673 5.68197 14.5834C5.52458 14.7161 5.36358 14.8431 5.20077 14.957C5.82748 15.339 6.48548 15.6635 7.16718 15.9265C6.80934 16.6529 6.39237 17.3465 5.92076 18C3.82636 17.3479 1.85645 16.328 0.0975075 14.9851C-0.380075 9.87049 0.913378 5.43773 3.51657 1.50747ZM15.3205 12.2709C16.4547 12.2709 17.3918 11.208 17.3918 9.90037C17.3918 8.59278 16.4873 7.52055 15.3241 7.52055C14.1609 7.52055 13.231 8.59278 13.2509 9.90037C13.2708 11.208 14.1645 12.2709 15.3205 12.2709ZM7.67913 12.2709C8.8152 12.2709 9.74866 11.208 9.74866 9.90037C9.74866 8.59278 8.84415 7.52055 7.67913 7.52055C6.51412 7.52055 5.59152 8.59278 5.61142 9.90037C5.63132 11.208 6.52317 12.2709 7.67913 12.2709Z" fill="white"/>
</svg>
