<svg width="19" height="19" viewBox="0 0 19 19" fill="none" xmlns="http://www.w3.org/2000/svg">
<path d="M13.8075 10.7284C13.7748 10.6957 13.7256 10.6957 13.6765 10.7121L13.5618 10.7612C13.0049 11.0397 12.3825 11.1707 11.7601 11.1707C11.7273 11.1707 11.711 11.1871 11.711 11.2034C11.6454 11.4983 11.3998 11.7112 11.0885 11.7112L9.81096 11.7112L9.81096 10.6466L9.82734 10.6466C9.90924 10.6629 9.97476 10.6629 10.0567 10.6793C10.5972 10.7612 10.8592 11.0069 10.9739 11.1216L10.9903 11.1379C11.0067 11.1543 11.0394 11.1543 11.0558 11.1379C11.0722 11.1216 11.0885 11.1052 11.1213 11.0888C11.3179 10.9578 11.7765 10.6793 11.7765 9.20517C11.7765 7.69828 10.6299 6.68276 10.4989 6.61724L9.82734 6.5681L9.81096 6.5681L9.81096 6.14224C9.942 6.06034 10.0403 5.91293 10.0403 5.73276C10.0403 5.47069 9.84372 5.25776 9.58165 5.25776C9.31958 5.25776 9.12303 5.47069 9.12303 5.73276C9.12303 5.89655 9.20493 6.04397 9.35234 6.12586L9.35234 6.48621L8.38596 6.38793C8.33682 6.38793 8.30407 6.43707 8.33683 6.46983C8.50062 6.7319 8.94286 7.55086 8.97562 8.77931C9.00838 9.92586 8.82821 10.4664 8.74631 10.6629C8.72993 10.6793 8.72993 10.6957 8.74631 10.7121C8.76269 10.7284 8.77907 10.7284 8.79545 10.7284C8.9101 10.7121 9.10665 10.6793 9.35234 10.6629L9.35234 11.7276L8.28769 11.7276C7.94372 11.7276 7.64889 11.4328 7.64889 11.0888L7.64889 10.8267C7.64889 10.794 7.63252 10.7776 7.59976 10.7776L5.61786 10.7776C5.60148 10.7776 5.56872 10.794 5.56872 10.8267C5.56872 10.8759 5.56872 10.925 5.56872 10.9741C5.56872 11.7112 5.78165 12.3828 6.142 12.9724C6.20752 13.0707 6.32217 13.1198 6.42045 13.0707L6.63338 12.9724C6.79717 12.8905 6.99372 12.8905 7.17389 12.9724L7.40321 13.0707C7.567 13.1526 7.76355 13.1526 7.94372 13.0707L8.17303 12.9724C8.35321 12.8905 8.53338 12.8905 8.71355 12.9724L8.94286 13.0707C9.12303 13.1526 9.30321 13.1526 9.48338 13.0707L9.71269 12.9724C9.89286 12.8905 10.073 12.8905 10.2532 12.9724L10.4825 13.0707C10.6627 13.1526 10.8429 13.1526 11.023 13.0707L11.2523 12.9724C11.4325 12.8905 11.6127 12.8905 11.7929 12.9724L12.0222 13.0707C12.1696 13.1362 12.3334 13.0543 12.4153 12.9069C12.5463 12.694 12.661 12.4483 12.7429 12.219C12.923 11.6784 13.2506 11.1707 13.7584 10.925C13.8075 10.9086 13.8239 10.8595 13.8239 10.8103C13.8567 10.794 13.8403 10.7448 13.8075 10.7284ZM6.50234 10.3681L8.36958 10.3681C8.40234 10.3681 8.41872 10.3517 8.41872 10.319L8.41872 8.28793C8.41872 8.27155 8.40234 8.25517 8.38596 8.23879L7.46872 7.81293C7.45234 7.79655 7.41958 7.81293 7.4032 7.84569L6.45321 10.2862C6.43683 10.3353 6.46958 10.3681 6.50234 10.3681ZM9.49976 -8.30516e-07C4.25838 -3.723e-07 -0.000243768 4.25862 -0.00024331 9.5C-0.000242852 14.7414 4.25838 19 9.49976 19C14.7411 19 18.9998 14.7414 18.9998 9.5C18.9998 4.25862 14.7411 -1.28873e-06 9.49976 -8.30516e-07ZM9.467 16.4121C5.68338 16.4121 2.62045 13.3491 2.62045 9.54914C2.62045 5.76552 5.68338 2.68621 9.467 2.68621C13.2506 2.68621 16.3135 5.76552 16.3135 9.54914C16.2972 13.3491 13.2342 16.4121 9.467 16.4121ZM13.6765 10.7121L13.5618 10.7612C13.0049 11.0397 12.3825 11.1707 11.7601 11.1707C11.7273 11.1707 11.711 11.1871 11.711 11.2034C11.6454 11.4983 11.3998 11.7112 11.0885 11.7112L9.81096 11.7112L9.81096 10.6466L9.82734 10.6466C9.90924 10.6629 9.97476 10.6629 10.0567 10.6793C10.5972 10.7612 10.8592 11.0069 10.9739 11.1216L10.9903 11.1379C11.0067 11.1543 11.0394 11.1543 11.0558 11.1379C11.0722 11.1216 11.0885 11.1052 11.1213 11.0888C11.3179 10.9578 11.7765 10.6793 11.7765 9.20517C11.7765 7.69828 10.6299 6.68276 10.4989 6.61724L9.82734 6.5681L9.81096 6.5681L9.81096 6.14224C9.942 6.06034 10.0403 5.91293 10.0403 5.73276C10.0403 5.47069 9.84372 5.25776 9.58165 5.25776C9.31958 5.25776 9.12303 5.47069 9.12303 5.73276C9.12303 5.89655 9.20493 6.04397 9.35234 6.12586L9.35234 6.48621L8.38596 6.38793C8.33682 6.38793 8.30407 6.43707 8.33683 6.46983C8.50062 6.7319 8.94286 7.55086 8.97562 8.77931C9.00838 9.92586 8.82821 10.4664 8.74631 10.6629C8.72993 10.6793 8.72993 10.6957 8.74631 10.7121C8.76269 10.7284 8.77907 10.7284 8.79545 10.7284C8.9101 10.7121 9.10665 10.6793 9.35234 10.6629L9.35234 11.7276L8.28769 11.7276C7.94372 11.7276 7.64889 11.4328 7.64889 11.0888L7.64889 10.8267C7.64889 10.794 7.63252 10.7776 7.59976 10.7776L5.61786 10.7776C5.60148 10.7776 5.56872 10.794 5.56872 10.8267C5.56872 10.8759 5.56872 10.925 5.56872 10.9741C5.56872 11.7112 5.78165 12.3828 6.142 12.9724C6.20752 13.0707 6.32217 13.1198 6.42045 13.0707L6.63338 12.9724C6.79717 12.8905 6.99372 12.8905 7.17389 12.9724L7.40321 13.0707C7.567 13.1526 7.76355 13.1526 7.94372 13.0707L8.17303 12.9724C8.35321 12.8905 8.53338 12.8905 8.71355 12.9724L8.94286 13.0707C9.12303 13.1526 9.30321 13.1526 9.48338 13.0707L9.71269 12.9724C9.89286 12.8905 10.073 12.8905 10.2532 12.9724L10.4825 13.0707C10.6627 13.1526 10.8429 13.1526 11.023 13.0707L11.2523 12.9724C11.4325 12.8905 11.6127 12.8905 11.7929 12.9724L12.0222 13.0707C12.1696 13.1362 12.3334 13.0543 12.4153 12.9069C12.5463 12.694 12.661 12.4483 12.7429 12.219C12.923 11.6784 13.2506 11.1707 13.7584 10.925C13.8075 10.9086 13.8239 10.8595 13.8239 10.8103C13.8239 10.7776 13.8075 10.7284 13.7748 10.7121C13.7748 10.7121 13.7256 10.6957 13.6765 10.7121ZM6.50234 10.3681L8.36958 10.3681C8.40234 10.3681 8.41872 10.3517 8.41872 10.319L8.41872 8.28793C8.41872 8.27155 8.40234 8.25517 8.38596 8.23879L7.46872 7.81293C7.45234 7.79655 7.41958 7.81293 7.4032 7.84569L6.45321 10.2862C6.43683 10.3353 6.46958 10.3681 6.50234 10.3681Z" fill="white"/>
<path d="M8.38596 8.25517L7.46872 7.82931C7.45234 7.81293 7.41958 7.82931 7.4032 7.86207L6.45321 10.3026C6.43683 10.3353 6.46958 10.3681 6.50234 10.3681L8.36958 10.3681C8.40234 10.3681 8.41872 10.3517 8.41872 10.319L8.41872 8.28793C8.41872 8.27155 8.40234 8.25517 8.38596 8.25517ZM13.8075 10.7284C13.7748 10.6957 13.7256 10.6957 13.6765 10.7121L13.5618 10.7612C13.0049 11.0397 12.3825 11.1707 11.7601 11.1707C11.7273 11.1707 11.711 11.1871 11.711 11.2034C11.6454 11.4983 11.3998 11.7112 11.0885 11.7112L9.81096 11.7112L9.81096 10.6466L9.82734 10.6466C9.90924 10.6629 9.97476 10.6629 10.0567 10.6793C10.5972 10.7612 10.8592 11.0069 10.9739 11.1216L10.9903 11.1379C11.0067 11.1543 11.0394 11.1543 11.0558 11.1379C11.0722 11.1216 11.0885 11.1052 11.1213 11.0888C11.3179 10.9578 11.7765 10.6793 11.7765 9.20517C11.7765 7.69828 10.6299 6.68276 10.4989 6.61724L9.82734 6.5681L9.81096 6.5681L9.81096 6.14224C9.942 6.06034 10.0403 5.91293 10.0403 5.73276C10.0403 5.47069 9.84372 5.25776 9.58165 5.25776C9.31958 5.25776 9.12303 5.47069 9.12303 5.73276C9.12303 5.89655 9.20493 6.04397 9.35234 6.12586L9.35234 6.48621L8.38596 6.38793C8.33682 6.38793 8.30407 6.43707 8.33683 6.46983C8.50062 6.7319 8.94286 7.55086 8.97562 8.77931C9.00838 9.92586 8.82821 10.4664 8.74631 10.6629C8.72993 10.6793 8.72993 10.6957 8.74631 10.7121C8.76269 10.7284 8.77907 10.7284 8.79545 10.7284C8.9101 10.7121 9.10665 10.6793 9.35234 10.6629L9.35234 11.7276L8.28769 11.7276C7.94372 11.7276 7.64889 11.4328 7.64889 11.0888L7.64889 10.8267C7.64889 10.794 7.63252 10.7776 7.59976 10.7776L5.61786 10.7776C5.60148 10.7776 5.56872 10.794 5.56872 10.8267C5.56872 10.8759 5.56872 10.925 5.56872 10.9741C5.56872 11.7112 5.78165 12.3828 6.142 12.9724C6.20752 13.0707 6.32217 13.1198 6.42045 13.0707L6.63338 12.9724C6.79717 12.8905 6.99372 12.8905 7.17389 12.9724L7.40321 13.0707C7.567 13.1526 7.76355 13.1526 7.94372 13.0707L8.17303 12.9724C8.35321 12.8905 8.53338 12.8905 8.71355 12.9724L8.94286 13.0707C9.12303 13.1526 9.30321 13.1526 9.48338 13.0707L9.71269 12.9724C9.89286 12.8905 10.073 12.8905 10.2532 12.9724L10.4825 13.0707C10.6627 13.1526 10.8429 13.1526 11.023 13.0707L11.2523 12.9724C11.4325 12.8905 11.6127 12.8905 11.7929 12.9724L12.0222 13.0707C12.1696 13.1362 12.3334 13.0543 12.4153 12.9069C12.5463 12.694 12.661 12.4483 12.7429 12.219C12.923 11.6784 13.2506 11.1707 13.7584 10.925C13.8075 10.9086 13.8239 10.8595 13.8239 10.8103C13.8567 10.794 13.8403 10.7448 13.8075 10.7284Z" fill="white"/>
</svg>
