<svg width="19" height="17" viewBox="0 0 19 17" fill="none" xmlns="http://www.w3.org/2000/svg">
<path d="M17.0546 4.2321C17.0662 4.41654 17.0662 4.60098 17.0662 4.78712C17.0662 10.4588 13.145 17 5.97494 17L5.97494 16.9966C3.85688 17 1.78282 16.3319 -0.000242823 15.0723C0.30774 15.1131 0.617267 15.1335 0.927565 15.1344C2.68284 15.1361 4.38793 14.4876 5.76884 13.2934C4.10079 13.2585 2.63807 12.061 2.12708 10.3126C2.7114 10.4367 3.31347 10.4112 3.88698 10.2387C2.06841 9.8341 0.760065 8.07471 0.760065 6.03144C0.760065 6.01274 0.760065 5.99489 0.760065 5.97705C1.30193 6.30937 1.90863 6.49381 2.52923 6.51421C0.816413 5.25374 0.288442 2.7447 1.32277 0.783024C3.30189 3.4646 6.22194 5.0948 9.35657 5.26734C9.04241 3.77653 9.47158 2.21433 10.4843 1.16635C12.0543 -0.458749 14.5236 -0.375455 15.9994 1.35249C16.8724 1.16295 17.7092 0.81022 18.4749 0.310452C18.1839 1.30404 17.5749 2.14804 16.7613 2.68435C17.5339 2.58406 18.2888 2.35627 18.9998 2.00864C18.4764 2.87219 17.8172 3.62439 17.0546 4.2321Z" fill="white"/>
</svg>
